<svg width="385" height="70" viewBox="0 0 385 70" fill="none" xmlns="http://www.w3.org/2000/svg">
<path d="M2.86988 2.67024H10.7099L24.4299 41.3102L23.2399 40.8202L33.2499 14.9202L36.3999 24.0902L23.0299 55.3102L2.86988 2.67024ZM27.1599 2.67024H33.9499L48.7899 40.7502L47.3899 40.4702L60.4799 2.67024H67.6899L47.8099 55.2402L27.1599 2.67024ZM84.9853 27.7302C84.9853 24.2302 85.6387 20.9402 86.9453 17.8602C88.2987 14.7336 90.1653 11.9802 92.5453 9.60024C94.9253 7.17358 97.6553 5.28357 100.735 3.93024C103.862 2.53024 107.222 1.83024 110.815 1.83024C114.362 1.83024 117.675 2.53024 120.755 3.93024C123.882 5.28357 126.635 7.17358 129.015 9.60024C131.442 11.9802 133.332 14.7336 134.685 17.8602C136.039 20.9402 136.715 24.2302 136.715 27.7302C136.715 31.3236 136.039 34.6836 134.685 37.8102C133.332 40.9369 131.442 43.6902 129.015 46.0702C126.635 48.4036 123.882 50.2469 120.755 51.6002C117.675 52.9069 114.362 53.5602 110.815 53.5602C107.222 53.5602 103.862 52.9069 100.735 51.6002C97.6553 50.2936 94.9253 48.4736 92.5453 46.1402C90.1653 43.8069 88.2987 41.0769 86.9453 37.9502C85.6387 34.8236 84.9853 31.4169 84.9853 27.7302ZM91.9853 27.8002C91.9853 30.4602 92.4753 32.9569 93.4553 35.2902C94.4353 37.5769 95.7887 39.6069 97.5153 41.3802C99.242 43.1536 101.249 44.5536 103.535 45.5802C105.822 46.5602 108.295 47.0502 110.955 47.0502C113.569 47.0502 116.019 46.5602 118.305 45.5802C120.592 44.5536 122.575 43.1536 124.255 41.3802C125.935 39.6069 127.265 37.5769 128.245 35.2902C129.225 32.9569 129.715 30.4369 129.715 27.7302C129.715 25.0702 129.225 22.5736 128.245 20.2402C127.265 17.8602 125.912 15.7836 124.185 14.0102C122.459 12.2369 120.452 10.8602 118.165 9.88024C115.879 8.85358 113.429 8.34024 110.815 8.34024C108.155 8.34024 105.682 8.85358 103.395 9.88024C101.109 10.9069 99.102 12.3069 97.3753 14.0802C95.6487 15.8536 94.3187 17.9302 93.3853 20.3102C92.452 22.6436 91.9853 25.1402 91.9853 27.8002ZM175.595 2.39024C178.162 2.39024 180.518 2.74024 182.665 3.44024C184.858 4.09358 186.748 5.09691 188.335 6.45024C189.968 7.75691 191.228 9.39024 192.115 11.3502C193.048 13.2636 193.515 15.5036 193.515 18.0702C193.515 20.0769 193.212 22.0369 192.605 23.9502C192.045 25.8636 191.088 27.6136 189.735 29.2002C188.382 30.7402 186.608 32.0002 184.415 32.9802C182.268 33.9136 179.608 34.3802 176.435 34.3802H168.945V53.0002H162.155V2.39024H175.595ZM176.295 27.8702C178.302 27.8702 179.958 27.5669 181.265 26.9602C182.618 26.3536 183.668 25.5836 184.415 24.6502C185.162 23.6702 185.698 22.6202 186.025 21.5002C186.352 20.3802 186.515 19.3302 186.515 18.3502C186.515 17.3236 186.328 16.2736 185.955 15.2002C185.628 14.0802 185.068 13.0536 184.275 12.1202C183.528 11.1869 182.525 10.4169 181.265 9.81024C180.052 9.20357 178.558 8.90024 176.785 8.90024H168.945V27.8702H176.295ZM184.625 31.7202L197.855 53.0002H190.015L176.575 31.9302L184.625 31.7202ZM222.297 53.0002V2.39024H236.087C241.081 2.39024 245.327 3.16024 248.827 4.70024C252.374 6.24024 255.221 8.27024 257.367 10.7902C259.514 13.3102 261.077 16.1102 262.057 19.1902C263.084 22.2236 263.597 25.2569 263.597 28.2902C263.597 32.1169 262.921 35.5469 261.567 38.5802C260.261 41.6136 258.441 44.2036 256.107 46.3502C253.774 48.4969 251.091 50.1536 248.057 51.3202C245.071 52.4402 241.897 53.0002 238.537 53.0002H222.297ZM229.087 46.4902H237.207C240.007 46.4902 242.574 46.0702 244.907 45.2302C247.287 44.3902 249.341 43.1769 251.067 41.5902C252.841 40.0036 254.217 38.0669 255.197 35.7802C256.177 33.4469 256.667 30.8102 256.667 27.8702C256.667 24.7436 256.154 22.0136 255.127 19.6802C254.101 17.3002 252.701 15.3169 250.927 13.7302C249.154 12.1436 247.147 10.9536 244.907 10.1602C242.667 9.32024 240.311 8.90024 237.837 8.90024H229.087V46.4902ZM289.003 2.39024H295.793V46.4902H321.483V53.0002H289.003V2.39024ZM346.547 2.39024H379.447V8.90024H353.337V24.3002H376.647V30.8102H353.337V46.4902H380.427V53.0002H346.547V2.39024Z" fill="black"/>
<path d="M19.5001 45.9999L23.0299 36.9999L24.4299 41.3102L23.2399 40.8202L33.2499 14.9202L36.3999 24.0902L23.0299 55.3102L19.5001 45.9999ZM32.0001 14.9202L35.5001 5.99988L48.7899 40.7502L47.3899 40.4702L60.4799 2.67017H67.6899L47.8099 55.2402L32.0001 14.9202Z" fill="#E82A2A"/>
<line x1="17.5364" y1="53.8128" x2="38.1953" y2="2.63942" stroke="white"/>
<line x1="16.5364" y1="53.9863" x2="37.1953" y2="2.81288" stroke="white"/>
</svg>
