<svg width="399" height="89" viewBox="0 0 399 89" fill="none" xmlns="http://www.w3.org/2000/svg">
<path d="M16.87 16.67H24.71L38.43 55.31L37.24 54.82L47.25 28.92L50.4 38.09L37.03 69.31L16.87 16.67ZM41.16 16.67H47.95L62.79 54.75L61.39 54.47L74.48 16.67H81.69L61.81 69.24L41.16 16.67ZM98.9855 41.73C98.9855 38.23 99.6388 34.94 100.945 31.86C102.299 28.7333 104.165 25.98 106.545 23.6C108.925 21.1733 111.655 19.2833 114.735 17.93C117.862 16.53 121.222 15.83 124.815 15.83C128.362 15.83 131.675 16.53 134.755 17.93C137.882 19.2833 140.635 21.1733 143.015 23.6C145.442 25.98 147.332 28.7333 148.685 31.86C150.039 34.94 150.715 38.23 150.715 41.73C150.715 45.3233 150.039 48.6833 148.685 51.81C147.332 54.9367 145.442 57.69 143.015 60.07C140.635 62.4033 137.882 64.2467 134.755 65.6C131.675 66.9067 128.362 67.56 124.815 67.56C121.222 67.56 117.862 66.9067 114.735 65.6C111.655 64.2933 108.925 62.4733 106.545 60.14C104.165 57.8067 102.299 55.0767 100.945 51.95C99.6388 48.8233 98.9855 45.4167 98.9855 41.73ZM105.985 41.8C105.985 44.46 106.475 46.9567 107.455 49.29C108.435 51.5767 109.789 53.6067 111.515 55.38C113.242 57.1533 115.249 58.5533 117.535 59.58C119.822 60.56 122.295 61.05 124.955 61.05C127.569 61.05 130.019 60.56 132.305 59.58C134.592 58.5533 136.575 57.1533 138.255 55.38C139.935 53.6067 141.265 51.5767 142.245 49.29C143.225 46.9567 143.715 44.4367 143.715 41.73C143.715 39.07 143.225 36.5733 142.245 34.24C141.265 31.86 139.912 29.7833 138.185 28.01C136.459 26.2367 134.452 24.86 132.165 23.88C129.879 22.8533 127.429 22.34 124.815 22.34C122.155 22.34 119.682 22.8533 117.395 23.88C115.109 24.9067 113.102 26.3067 111.375 28.08C109.649 29.8533 108.319 31.93 107.385 34.31C106.452 36.6433 105.985 39.14 105.985 41.8ZM189.595 16.39C192.162 16.39 194.518 16.74 196.665 17.44C198.858 18.0933 200.748 19.0967 202.335 20.45C203.968 21.7567 205.228 23.39 206.115 25.35C207.048 27.2633 207.515 29.5033 207.515 32.07C207.515 34.0767 207.212 36.0367 206.605 37.95C206.045 39.8633 205.088 41.6133 203.735 43.2C202.382 44.74 200.608 46 198.415 46.98C196.268 47.9133 193.608 48.38 190.435 48.38H182.945V67H176.155V16.39H189.595ZM190.295 41.87C192.302 41.87 193.958 41.5667 195.265 40.96C196.618 40.3533 197.668 39.5833 198.415 38.65C199.162 37.67 199.698 36.62 200.025 35.5C200.352 34.38 200.515 33.33 200.515 32.35C200.515 31.3233 200.328 30.2733 199.955 29.2C199.628 28.08 199.068 27.0533 198.275 26.12C197.528 25.1867 196.525 24.4167 195.265 23.81C194.052 23.2033 192.558 22.9 190.785 22.9H182.945V41.87H190.295ZM198.625 45.72L211.855 67H204.015L190.575 45.93L198.625 45.72ZM236.298 67V16.39H250.088C255.081 16.39 259.328 17.16 262.828 18.7C266.374 20.24 269.221 22.27 271.368 24.79C273.514 27.31 275.078 30.11 276.058 33.19C277.084 36.2233 277.598 39.2567 277.598 42.29C277.598 46.1167 276.921 49.5467 275.568 52.58C274.261 55.6133 272.441 58.2033 270.108 60.35C267.774 62.4967 265.091 64.1533 262.058 65.32C259.071 66.44 255.898 67 252.538 67H236.298ZM243.088 60.49H251.208C254.008 60.49 256.574 60.07 258.908 59.23C261.288 58.39 263.341 57.1767 265.068 55.59C266.841 54.0033 268.218 52.0667 269.198 49.78C270.178 47.4467 270.668 44.81 270.668 41.87C270.668 38.7433 270.154 36.0133 269.128 33.68C268.101 31.3 266.701 29.3167 264.928 27.73C263.154 26.1433 261.148 24.9533 258.908 24.16C256.668 23.32 254.311 22.9 251.838 22.9H243.088V60.49ZM303.003 16.39H309.793V60.49H335.483V67H303.003V16.39ZM360.548 16.39H393.448V22.9H367.338V38.3H390.648V44.81H367.338V60.49H394.428V67H360.548V16.39Z" fill="black"/>
<path d="M6.84058 6.65637C14.1061 7.77415 21.7606 12.506 28.2666 15.7589C39.2077 21.2295 49.733 27.6631 60.3357 33.754C63.3694 35.4968 77.2734 41.9463 67.3376 41.9463C59.8237 41.9463 52.304 41.8598 44.7913 42.0163C38.9412 42.1382 28.4243 41.13 23.0852 44.467C19.8248 46.5048 29.6146 48.6004 33.168 50.0686C40.5455 53.1168 47.7368 56.4428 54.8741 60.0114C67.7829 66.4658 40.0692 61.4366 37.0191 60.8517C36.5912 60.7696 24.1023 57.184 33.098 59.5913C45.539 62.9206 57.6196 67.8835 69.3682 73.1051C69.5304 73.1772 90.0234 82.2777 83.7223 82.2777" stroke="#E82A2A" stroke-width="12" stroke-linecap="round"/>
</svg>
