<svg width="71" height="57" viewBox="0 0 71 57" fill="none" xmlns="http://www.w3.org/2000/svg">
<path d="M2.87 0.669997H10.71L24.43 39.31L23.24 38.82L33.25 12.92L36.4 22.09L23.03 53.31L2.87 0.669997ZM27.16 0.669997H33.95L48.79 38.75L47.39 38.47L60.48 0.669997H67.69L47.81 53.24L27.16 0.669997Z" fill="black"/>
<path d="M19.5 43.9998L23.0298 34.9998L24.4298 39.31L23.2398 38.82L33.2498 12.92L36.3998 22.09L23.0298 53.31L19.5 43.9998ZM32 12.92L35.5 3.99976L48.7898 38.75L47.3898 38.47L60.4798 0.670044H67.6898L47.8098 53.24L32 12.92Z" fill="#E82A2A"/>
<line x1="15.7864" y1="55.8126" x2="36.4453" y2="4.63918" stroke="white"/>
<line x1="14.7364" y1="55.9829" x2="36.5198" y2="2.02403" stroke="white"/>
</svg>
